<svg width="18" height="16" viewBox="0 0 18 16" fill="none" xmlns="http://www.w3.org/2000/svg">
<path d="M0.356934 4.95471L8.72793 9.30835C8.8119 9.35202 8.90515 9.37481 8.99979 9.37481C9.09443 9.37481 9.18768 9.35202 9.27165 9.30835L17.6426 4.9555V12.518C17.6427 13.1702 17.3931 13.7978 16.9452 14.2719C16.4972 14.746 15.8849 15.0307 15.2336 15.0676L15.0891 15.0716H2.91051C2.25825 15.0716 1.63071 14.8221 1.15661 14.3741C0.682508 13.9262 0.39779 13.3138 0.360862 12.6626L0.356934 12.518V4.95471ZM2.91051 0.928711H15.0891C15.7413 0.928668 16.3689 1.17822 16.843 1.62617C17.3171 2.07412 17.6018 2.68651 17.6387 3.33771L17.6426 3.48228V3.62685L8.99979 8.12114L0.356934 3.62685V3.48228C0.356891 2.83003 0.60644 2.20249 1.05439 1.72839C1.50234 1.25429 2.11473 0.969567 2.76593 0.93264L2.91051 0.928711H15.0891H2.91051Z" fill="#DA1F39"/>
</svg>
