<svg width="18" height="18" viewBox="0 0 18 18" fill="none" xmlns="http://www.w3.org/2000/svg">
<path d="M16.3333 0.75H1.66667C1.42355 0.75 1.19039 0.846577 1.01849 1.01849C0.846577 1.19039 0.75 1.42355 0.75 1.66667V16.3333C0.75 16.5764 0.846577 16.8096 1.01849 16.9815C1.19039 17.1534 1.42355 17.25 1.66667 17.25H9.56375V10.87H7.42058V8.37208H9.56375V6.53875C9.56375 4.4075 10.8654 3.24608 12.7721 3.24608C13.4128 3.24425 14.0545 3.27725 14.6925 3.34417V5.5625H13.3771C12.3431 5.5625 12.1414 6.05567 12.1414 6.77708V8.3675H14.6137L14.2928 10.8654H12.1405V17.25H16.3333C16.5764 17.25 16.8096 17.1534 16.9815 16.9815C17.1534 16.8096 17.25 16.5764 17.25 16.3333V1.66667C17.25 1.42355 17.1534 1.19039 16.9815 1.01849C16.8096 0.846577 16.5764 0.75 16.3333 0.75Z" fill="#DA1F39"/>
</svg>
