<svg width="18" height="18" viewBox="0 0 18 18" fill="none" xmlns="http://www.w3.org/2000/svg">
<path d="M8.99986 0.359375C4.22806 0.359375 0.359863 4.22758 0.359863 8.99938C0.359863 13.7712 4.22806 17.6394 8.99986 17.6394C13.7717 17.6394 17.6399 13.7712 17.6399 8.99938C17.6399 4.22758 13.7717 0.359375 8.99986 0.359375ZM9.59116 11.0469C9.03676 11.0046 8.80456 10.7301 8.37076 10.4673C8.13226 11.7192 7.84066 12.9198 6.97666 13.5471C6.70936 11.6535 7.36726 10.2333 7.67326 8.72398C7.15216 7.84648 7.73536 6.08157 8.83516 6.51537C10.1879 7.05177 7.66336 9.77788 9.35806 10.119C11.1275 10.4736 11.8502 7.04817 10.7531 5.93577C9.16726 4.32748 6.13876 5.89888 6.51136 8.20108C6.60136 8.76357 7.18366 8.93458 6.74356 9.71128C5.72926 9.48628 5.42596 8.68618 5.46556 7.61968C5.52766 5.87368 7.03426 4.65057 8.54446 4.48227C10.4552 4.26987 12.248 5.18337 12.4964 6.98157C12.7745 9.01017 11.6333 11.2053 9.59116 11.0469Z" fill="#DA1F39"/>
</svg>
