<svg width="21" height="21" viewBox="0 0 21 21" fill="none" xmlns="http://www.w3.org/2000/svg">
<rect width="21" height="21" fill="#F4F4F4"/>
<path d="M9.90625 5H10.8438C10.9271 5 10.9688 5.04167 10.9688 5.125V16.125C10.9688 16.2083 10.9271 16.25 10.8438 16.25H9.90625C9.82292 16.25 9.78125 16.2083 9.78125 16.125V5.125C9.78125 5.04167 9.82292 5 9.90625 5Z" fill="black"/>
<path d="M5.125 10.0312H15.625C15.7083 10.0312 15.75 10.0729 15.75 10.1562V11.0937C15.75 11.1771 15.7083 11.2187 15.625 11.2187H5.125C5.04167 11.2187 5 11.1771 5 11.0937V10.1562C5 10.0729 5.04167 10.0312 5.125 10.0312Z" fill="black"/>
</svg>
