<svg width="19" height="15" viewBox="0 0 19 15" fill="none" xmlns="http://www.w3.org/2000/svg">
<path d="M18.601 2.91055C18.4907 2.51614 18.2804 2.15691 17.9905 1.86762C17.7006 1.57834 17.3409 1.36881 16.9463 1.25933C15.4649 0.8633 9.50955 0.8633 9.50955 0.8633C9.50955 0.8633 3.56551 0.8538 2.06867 1.25933C1.67466 1.36929 1.31567 1.57904 1.02642 1.8683C0.737159 2.15755 0.527413 2.51654 0.41745 2.91055C0.136131 4.42712 -0.00242238 5.96672 0.00360653 7.50914C0.000861572 9.04415 0.139394 10.5762 0.41745 12.0858C0.527769 12.48 0.737577 12.8392 1.02673 13.129C1.31589 13.4188 1.67468 13.6294 2.06867 13.7406C3.55008 14.1366 9.50955 14.1366 9.50955 14.1366C9.50955 14.1366 15.45 14.1366 16.9463 13.7406C17.3409 13.6299 17.7004 13.4195 17.9902 13.1297C18.28 12.8399 18.4904 12.4804 18.601 12.0858C18.8736 10.5771 19.0066 9.0428 18.9971 7.50914C19.0066 5.96539 18.8765 4.42877 18.601 2.91055ZM7.60717 10.3514V4.65439L12.5644 7.50914L7.60717 10.3514Z" fill="#DA1F39"/>
</svg>
